<svg width="146" height="89" viewBox="0 0 146 89" fill="none" xmlns="http://www.w3.org/2000/svg">
<g clip-path="url(#clip0_231_10)">
<path d="M140.366 85.3728C142.018 85.3728 143.493 85.3139 144.791 85.2254L145.528 85.1369L145.572 87.7472C143.537 88.2486 141.694 88.4846 140.057 88.4846C138.051 88.4846 136.606 87.9536 135.692 86.9066C134.807 85.8447 134.349 84.1341 134.349 81.745C134.349 77.011 136.296 74.6367 140.204 74.6367C144.068 74.6367 146 76.6276 146 80.6094L145.735 83.0722H137.918C137.948 83.8833 138.169 84.4732 138.582 84.8419C138.995 85.1959 139.585 85.3728 140.366 85.3728V85.3728ZM142.475 80.3734C142.475 79.3264 142.313 78.589 141.974 78.1613C141.65 77.7484 141.06 77.5419 140.204 77.5419C139.378 77.5419 138.788 77.7631 138.435 78.1908C138.095 78.6332 137.918 79.3559 137.904 80.3734H142.475ZM128.627 74.6367C129.557 74.6367 130.736 74.7842 132.167 75.0644L132.889 75.2118L132.772 78.0139C131.385 77.8811 130.338 77.8074 129.675 77.8074C128.45 77.8074 127.639 78.0728 127.241 78.589C126.843 79.1052 126.651 80.0932 126.651 81.5385C126.651 82.9838 126.843 83.9718 127.241 84.5175C127.639 85.0484 128.465 85.3138 129.689 85.3138L132.786 85.1074L132.889 87.9389C131.463 88.2489 130.012 88.4315 128.554 88.4846C126.592 88.4846 125.177 87.9389 124.321 86.8328C123.466 85.7415 123.038 83.9718 123.038 81.5385C123.038 79.1052 123.481 77.3502 124.365 76.2589C125.25 75.1823 126.666 74.6367 128.642 74.6367H128.627ZM112.951 88.1749H109.382V74.9611H112.921V75.6985C113.914 75.058 115.059 74.6916 116.24 74.6367C118.009 74.6367 119.233 75.1676 119.912 76.1999C120.59 77.2322 120.929 78.8545 120.929 81.0076V88.1749H117.36V81.1108C117.36 79.99 117.228 79.1494 116.962 78.6185C116.697 78.0876 116.166 77.8074 115.369 77.8074C114.632 77.8074 113.939 77.9401 113.261 78.1761L112.951 78.294V88.1749ZM106.388 84.5765C106.418 85.0042 106.492 85.2991 106.595 85.4613C106.698 85.6235 106.919 85.7563 107.258 85.8153L107.155 88.4846C106.256 88.4846 105.533 88.4256 104.987 88.3076C104.405 88.1647 103.855 87.9147 103.365 87.5702C102.082 88.1749 100.784 88.4846 99.457 88.4846C96.7139 88.4846 95.3277 87.0393 95.3277 84.1488C95.3277 82.7478 95.7111 81.745 96.478 81.1551C97.2448 80.5652 98.3951 80.2112 99.9879 80.1227L102.819 79.9015V79.0757C102.819 78.53 102.701 78.1613 102.451 77.9549C102.2 77.7484 101.802 77.6599 101.271 77.6599L96.2568 77.8664L96.1535 75.4035C98.056 74.9021 99.8551 74.6367 101.566 74.6367C103.277 74.6367 104.515 74.9906 105.253 75.6985C106.005 76.4064 106.388 77.5272 106.388 79.0904V84.5765ZM100.401 82.5708C99.4127 82.6593 98.9261 83.1902 98.9261 84.1488C98.9261 85.1221 99.3538 85.6088 100.224 85.6088C100.888 85.6088 101.625 85.5056 102.421 85.2844L102.805 85.1811V82.3644L100.401 82.5708ZM77.8962 88.1749H74.342V74.9611H77.8666V75.6985C78.8013 75.0839 79.8775 74.7184 80.9931 74.6367C82.4384 74.6367 83.5444 75.0496 84.3113 75.8755C85.6829 75.1176 87.2137 74.6932 88.7798 74.6367C90.5348 74.6367 91.744 75.1528 92.4372 76.1557C93.1155 77.1732 93.4547 78.7955 93.4547 81.0223V88.1749H89.9006V81.1108C89.9006 79.99 89.7679 79.1494 89.5172 78.6185C89.2812 78.0876 88.7798 77.8074 88.0424 77.8074C87.4673 77.8074 86.7741 77.9401 85.9778 78.1761L85.5649 78.3235C85.6386 79.6361 85.6681 80.6389 85.6681 81.332V88.1749H82.1139V81.391C82.1139 80.0638 81.996 79.1494 81.7748 78.6185C81.5388 78.0876 81.0373 77.8074 80.2557 77.8074C79.5626 77.8074 78.8843 77.9401 78.2059 78.1761L77.8962 78.294V88.1749ZM64.8594 88.1749V74.9611H68.384V76.3621C69.8588 75.4773 71.2745 74.9021 72.6165 74.6367V78.2056C71.186 78.5005 69.962 78.8102 68.9297 79.1347L68.3988 79.3116V88.1601L64.8594 88.1749ZM51.8374 76.4506C52.7812 75.2413 54.3444 74.6367 56.5565 74.6367C58.7392 74.6367 60.3025 75.2413 61.2463 76.4506C62.1754 77.6599 62.6472 79.3559 62.6472 81.5385C62.6472 86.1692 60.6122 88.4846 56.5419 88.4846C52.4716 88.4846 50.4364 86.1692 50.4364 81.5385C50.4364 79.3559 50.9083 77.6599 51.8374 76.4506V76.4506ZM54.5952 84.5175C54.9491 85.1516 55.6128 85.4613 56.5419 85.4613C57.4857 85.4613 58.1345 85.1516 58.5032 84.5175C58.8571 83.8833 59.0342 82.8953 59.0342 81.5385C59.0342 80.1817 58.8571 79.1789 58.5032 78.589C58.1345 77.9549 57.4709 77.6599 56.5419 77.6599C55.6128 77.6599 54.9491 77.9549 54.5952 78.5743C54.1684 79.496 53.9808 80.5104 54.0495 81.5237C54.0495 82.8805 54.2265 83.8833 54.5952 84.5175V84.5175ZM46.3365 77.9696V88.1749H42.7972V74.3712C42.7972 72.4688 43.0774 71.1563 43.6378 70.4337C44.213 69.711 45.2158 69.3571 46.661 69.3571C47.3099 69.3571 48.1358 69.4456 49.1386 69.6225L49.699 69.6963L49.64 72.572L47.6786 72.5278C47.1477 72.5278 46.7937 72.6753 46.6167 72.9555C46.4398 73.2357 46.3513 73.7223 46.3513 74.4007V74.9611H49.5662V77.9696H46.3365ZM40.4081 76.3621H35.9691V82.8953C35.9691 84.606 36.0871 85.7268 36.3378 86.2577C36.5885 86.7886 37.1637 87.0541 38.0928 87.0541L40.5408 86.8623L40.644 88.2191C39.4642 88.3813 38.5794 88.4846 37.96 88.4846C36.618 88.4846 35.6742 88.1454 35.158 87.4817C34.6419 86.8181 34.3764 85.5646 34.3764 83.6916V70.7876H35.9691V74.9464H40.3934L40.4081 76.3621ZM27.6072 76.3621V88.1601H26.0146V73.6044C26.0146 71.7462 26.2652 70.4779 26.7814 69.8142C27.2975 69.1506 28.1972 68.8262 29.5097 68.8262L32.0905 68.9589V70.3009L29.7456 70.2567C28.9198 70.2567 28.3594 70.4779 28.0497 70.9351C27.7548 71.3922 27.6072 72.2918 27.6072 73.6339V74.9611H31.6186V76.3621H27.6072ZM12.1077 81.5385C12.1077 79.0609 12.5354 77.2912 13.376 76.2589C14.2166 75.2266 15.647 74.6957 17.6674 74.6957C19.7026 74.6957 21.1332 75.2118 21.9738 76.2589C22.8144 77.2912 23.2273 79.0609 23.2273 81.5385C23.2273 84.0161 22.8438 85.8005 22.0769 86.8476C21.3101 87.9094 19.8501 88.4403 17.6822 88.4403C15.5291 88.4403 14.0543 87.9094 13.2727 86.8476C12.4911 85.8005 12.1077 84.0161 12.1077 81.5385ZM13.7594 81.4943C13.7594 83.5884 13.9954 85.0336 14.4968 85.83C14.9687 86.6411 16.0305 87.0393 17.6674 87.0393C19.3044 87.0393 20.381 86.6264 20.8677 85.8153C21.3691 85.0042 21.6051 83.5737 21.6051 81.4943C21.6051 79.4296 21.3396 78.0138 20.7792 77.247C20.2188 76.4801 19.1864 76.0967 17.6822 76.0967C16.178 76.0967 15.1457 76.4801 14.5853 77.2322C14.0396 77.9844 13.7594 79.4149 13.7594 81.509V81.4943ZM4.76341 76.1409C2.66926 76.1409 1.62219 76.893 1.62219 78.3973C1.62219 79.0757 1.84345 79.5771 2.31536 79.8425C2.75779 80.1375 3.80484 80.4029 5.42706 80.6831C7.04928 80.9486 8.18485 81.332 8.84848 81.804C9.51212 82.2759 9.8513 83.1902 9.8513 84.5322C9.8513 85.889 9.40887 86.8771 8.55352 87.4965C7.66867 88.1306 6.41517 88.4403 4.71921 88.4403C3.76062 88.4403 2.50711 88.3076 0.958622 88.0716L0.191724 87.9536L0.294967 86.5526C2.27113 86.8476 3.79008 87.0098 4.86665 87.0098C5.92847 87.0098 6.75431 86.8181 7.34421 86.4494C7.93411 86.0807 8.22912 85.4613 8.22912 84.5765C8.22912 83.6916 7.99316 83.1017 7.49174 82.8068C6.49808 82.3782 5.4429 82.1094 4.36528 82.0104C3.17343 81.9046 2.0174 81.5478 0.973294 80.9633C0.324405 80.5062 0 79.6361 0 78.3678C0 77.0995 0.442399 76.1704 1.35674 75.5953C2.36251 74.9803 3.52616 74.6727 4.70445 74.7104C5.76627 74.7104 7.09356 74.8284 8.68628 75.0644L9.39413 75.1676L9.34994 76.5686C7.44751 76.2884 5.92844 76.1409 4.74864 76.1409" fill="white"/>
<path d="M90.3578 8.21484H75.3301V13.1405H85.4173C88.1456 13.1405 90.3578 10.9284 90.3578 8.21484Z" fill="#EB660B"/>
<path d="M96.1535 0H80.2704C78.9627 -5.82632e-06 77.7083 0.518474 76.7822 1.44179C75.8561 2.36511 75.334 3.61793 75.3301 4.92565H91.213C93.9413 4.92565 96.1535 2.71354 96.1535 0Z" fill="#EB660B"/>
<path d="M83.2345 23.6552L66.0242 21.4578C65.4944 21.4005 64.9951 21.1815 64.594 20.8306C64.193 20.4797 63.9097 20.0139 63.7826 19.4964C63.4286 17.8742 64.6674 16.4289 66.2454 16.4289H75.3299V13.1255H71.6135C70.9603 13.1255 70.3339 12.866 69.872 12.4041C69.4102 11.9423 69.1507 11.3158 69.1507 10.6626C69.1507 10.0095 69.4102 9.38303 69.872 8.92116C70.3339 8.4593 70.9603 8.19981 71.6135 8.19981H75.3299V4.91113H49.3301V7.02002C49.3301 10.4709 51.8961 13.3614 55.3323 13.8039H49.3301V15.9275C49.3301 19.3637 51.8961 22.2689 55.3323 22.7113H49.3301V24.835C49.3301 28.2711 51.8961 31.1764 55.3175 31.6188L81.7745 35.055C83.1755 35.2319 84.1931 36.5297 83.9571 37.975C83.7507 39.2285 82.5709 40.0839 81.3026 40.0839H60.8626C59.3495 40.08 57.8505 40.3746 56.4515 40.951C55.0525 41.5273 53.7809 42.374 52.7096 43.4426C51.6384 44.5111 50.7884 45.7805 50.2085 47.178C49.6286 48.5756 49.3301 50.0738 49.3301 51.5869H81.0076C88.3814 51.5869 94.826 46.1156 95.4601 38.7861C95.7709 35.1717 94.6721 31.5771 92.3935 28.7543C90.1149 25.9315 86.8331 24.0991 83.2345 23.6404" fill="white"/>
</g>
<defs>
<clipPath id="clip0_231_10">
<rect width="146" height="88.4848" fill="white"/>
</clipPath>
</defs>
</svg>
